<svg width="800" height="600" xmlns="http://www.w3.org/2000/svg">
  <defs>
    <linearGradient id="bg" gradientTransform="rotate(90)">
      <stop offset="0%" stop-color="#0e1446"/>
      <stop offset="100%" stop-color="#941b80"/>
    </linearGradient>
  </defs>
  <rect width="800" height="600" fill="url(#bg)"/>
  <circle cx="150" cy="200" r="80" fill="rgba(255, 200, 0, 0.8)"/>
  <circle cx="650" cy="150" r="60" fill="rgba(0, 200, 255, 0.6)"/>
  <path d="M0 400 C200 450 600 350 800 400" fill="#2e8b57"/>
  <path d="M0 420 C300 480 500 320 800 420" fill="#3cb371" opacity="0.8"/>
  <polygon points="200,500 220,540 260,540 230,560 240,600 200,580 160,600 170,560 140,540 180,540" fill="#ff69b4"/>
  <!-- stars -->
  <g fill="white">
    <circle cx="100" cy="100" r="2"/>
    <circle cx="200" cy="80" r="1.5"/>
    <circle cx="400" cy="120" r="2.5"/>
    <circle cx="600" cy="50" r="2"/>
    <circle cx="700" cy="90" r="1.5"/>
  </g>
</svg>
